<?xml version="1.0" standalone="no"?>
<!DOCTYPE svg PUBLIC "-//W3C//DTD SVG 20010904//EN"
 "http://www.w3.org/TR/2001/REC-SVG-20010904/DTD/svg10.dtd">
<svg version="1.0" xmlns="http://www.w3.org/2000/svg"
 width="1119.000000pt" height="1119.000000pt" viewBox="0 0 1119.000000 1119.000000"
 preserveAspectRatio="xMidYMid meet">
<metadata>
Created by potrace 1.14, written by Peter Selinger 2001-2017
</metadata>
<g transform="translate(0.000000,1119.000000) scale(0.100000,-0.100000)"
fill="#000000" stroke="none">
<path d="M5309 11185 c-2 -1 -47 -6 -99 -9 -221 -15 -292 -24 -525 -62 -187
-31 -194 -32 -395 -79 -65 -15 -193 -49 -231 -61 -25 -8 -55 -16 -65 -18 -70
-14 -473 -160 -611 -222 -32 -14 -89 -40 -128 -57 -116 -53 -332 -165 -470
-245 -122 -70 -406 -253 -431 -276 -6 -6 -22 -18 -34 -26 -96 -64 -360 -277
-484 -391 -148 -134 -366 -360 -525 -544 -78 -90 -298 -384 -371 -495 -195
-297 -375 -632 -490 -910 -28 -69 -57 -138 -65 -155 -74 -172 -224 -668 -260
-865 -3 -14 -14 -70 -25 -125 -24 -122 -27 -140 -40 -236 -6 -41 -12 -84 -14
-95 -2 -10 -7 -53 -11 -94 -4 -41 -9 -88 -11 -105 -19 -156 -26 -734 -10 -915
4 -47 9 -107 11 -135 5 -59 10 -103 30 -250 19 -140 19 -136 60 -345 3 -14 8
-38 11 -55 7 -44 53 -229 76 -310 167 -595 418 -1139 755 -1638 52 -76 98
-144 104 -150 5 -7 41 -55 81 -107 86 -115 148 -192 200 -250 13 -14 49 -55
80 -92 103 -118 312 -325 489 -484 211 -189 455 -367 814 -591 195 -122 537
-291 795 -394 111 -44 344 -128 371 -134 9 -2 53 -15 97 -29 70 -22 217 -62
262 -71 8 -2 42 -10 75 -19 33 -8 75 -18 92 -21 18 -3 61 -12 95 -19 35 -8 83
-17 108 -20 25 -3 56 -8 70 -11 31 -7 206 -31 280 -40 30 -3 69 -7 85 -9 213
-27 844 -28 1073 -1 20 2 80 9 132 15 164 20 356 51 510 85 12 2 161 38 250
59 8 2 35 10 60 17 25 7 52 14 61 15 36 7 392 129 499 171 119 47 135 54 337
147 555 256 1105 640 1554 1087 162 162 301 313 367 399 15 19 35 44 45 55 10
11 63 79 117 150 375 498 657 1038 852 1630 33 101 89 294 103 354 3 9 17 72
34 141 16 69 32 145 36 170 4 25 9 54 12 65 9 42 41 243 47 295 3 30 8 73 11
95 2 22 7 59 9 82 28 238 29 828 1 1063 -2 19 -9 80 -15 135 -9 84 -34 247
-55 370 -97 546 -337 1207 -617 1699 -37 66 -68 121 -68 123 0 6 -233 365
-252 388 -5 6 -33 44 -64 85 -30 41 -60 82 -67 90 -6 8 -28 35 -47 60 -19 25
-37 47 -40 50 -3 3 -15 18 -27 33 -20 26 -70 84 -173 201 -48 54 -293 300
-376 377 -70 65 -285 244 -379 315 -100 76 -353 254 -361 254 -3 0 -24 13 -47
28 -125 85 -452 261 -672 363 -201 92 -533 215 -755 278 -104 30 -322 86 -370
95 -14 3 -70 14 -125 24 -55 11 -118 23 -140 26 -22 3 -51 8 -65 11 -38 7 -91
14 -155 21 -32 3 -66 7 -75 9 -9 2 -56 6 -106 10 -49 4 -100 9 -114 12 -31 5
-686 13 -691 8z"/>
</g>
</svg>
